<svg xmlns="http://www.w3.org/2000/svg" width="90" height="75.343" viewBox="0 0 90 75.343">
  <g id="noun_Heart_3244509" transform="translate(-1.785 -4.1)">
    <g id="Group_1" data-name="Group 1" transform="translate(2 4.28)">
      <path id="Path_1" data-name="Path 1" d="M24.39,4.283A22.387,22.387,0,0,0,8.551,42.509L44.724,78.682a3.215,3.215,0,0,0,4.545,0L85.448,42.509A22.4,22.4,0,0,0,53.77,10.831L47,17.6l-6.767-6.774A22.328,22.328,0,0,0,24.39,4.283Z" transform="translate(-2.215 -4.46)" fill="#fff"/>
    </g>
  </g>
  <path id="Path_2" data-name="Path 2" d="M-.421,334.342H6.754l7.293-15.41,10.436,27.2,7.673-18.514,4.431,6.719h5.4" transform="translate(23 -296.671)" fill="none" stroke="#0FA4A0" stroke-linecap="round" stroke-linejoin="round" stroke-width="4"/>
</svg>
