<!DOCTYPE svg PUBLIC "-//W3C//DTD SVG 1.1//EN" "http://www.w3.org/Graphics/SVG/1.1/DTD/svg11.dtd">
<!-- Uploaded to: SVG Repo, www.svgrepo.com, Transformed by: SVG Repo Mixer Tools -->
<svg version="1.1" id="Layer_1" xmlns="http://www.w3.org/2000/svg" xmlns:xlink="http://www.w3.org/1999/xlink" viewBox="0 0 512 512" xml:space="preserve" width="64px" height="64px" fill="#000000">
<g id="SVGRepo_bgCarrier" stroke-width="0"/>
<g id="SVGRepo_tracerCarrier" stroke-linecap="round" stroke-linejoin="round"/>
<g id="SVGRepo_iconCarrier"> <polyline style="fill:#0FA4A0;" points="278.055,512 278.055,282.296 325.598,282.296 325.598,512 "/> <polygon style="fill:#0f8583;" points="278.055,357.222 278.055,286.897 325.598,286.897 325.598,326.744 "/> <path style="fill:#0FA4A0;" d="M257.333,299.886h234.535V160c0-47.969-38.888-86.857-86.857-86.857l0,0H170.475"/> <path style="fill:#0f8583;" d="M247.274,73.143L247.274,73.143h-30.441c47.969,0,86.857,38.888,86.857,86.857v69.825 c0,12.609,7.666,23.427,18.592,28.049c3.642,1.541,11.849-29.896,11.849-29.896V160C334.132,112.03,295.245,73.143,247.274,73.143z"/> <path style="fill:#415E72;" d="M170.475,73.143L170.475,73.143c-47.971,0-86.857,38.888-86.857,86.857v139.886h173.714V160 C257.333,112.03,218.445,73.143,170.475,73.143z"/> <polygon style="fill:#CFDCE5;" points="252.166,299.878 58.029,299.878 58.029,147.117 251.235,147.117 251.293,155.855 251.395,173.697 252.005,273.782 252.12,291.802 "/> <polygon style="fill:#000000;" points="339.314,103.314 339.314,16.457 426.171,59.886 "/> <g> <path style="fill:#BAC6CC;" d="M249.615,179.066l-57.351,44.426l55.962,43.263l1.579,2.946l2.291,18.206l0,0l-71.392-55.453 l-12.056,9.34l-12.056-9.34l-87.002,67.424h-11.56v-8.962l87.002-67.425l-87.002-67.413v-8.962h11.572l99.047,76.753l78.203-60.585 l0.986,3.095c0.083,1.559,2.938-1.411,2.938,0.183l-1.364,6.52L249.615,179.066z"/> <path style="fill:#BAC6CC;" d="M257.333,299.881V160c0-4.38-0.332-8.68-0.958-12.886h-27.867c0.622,4.206,0.951,8.509,0.951,12.886 v139.88H257.333z"/> </g> <rect x="20.133" y="282.179" style="fill:#0FA4A0;" width="257.866" height="17.712"/> <rect x="20.133" y="282.179" style="fill:#0f8583;" width="110.997" height="17.712"/> <path style="fill:#415E72;" d="M327.924,0L327.924,0c-8.248,0-14.934,6.686-14.934,14.934v229.79 c0,8.248,6.686,14.934,14.934,14.934l0,0c8.248,0,14.934-6.686,14.934-14.934V14.934C342.857,6.686,336.171,0,327.924,0z"/> </g>
</svg>